<svg xmlns="http://www.w3.org/2000/svg" viewBox="0 0 1920 1080"><defs><style>.cls-1{fill:#fcfcfc;}.cls-2{fill:#37cdc2;}.cls-3{isolation:isolate;font-size:133.93px;font-family:PatrickHand-Regular, Patrick Hand;}.cls-4{fill:none;}</style></defs><g id="레이어_2" data-name="레이어 2"><g id="레이어_1-2" data-name="레이어 1"><g id="레이어_2-2" data-name="레이어 2"><g id="레이어_1-2-2" data-name="레이어 1-2"><g id="레이어_2-2-2" data-name="레이어 2-2"><g id="레이어_1-2-2-2" data-name="레이어 1-2-2"><g id="레이어_2-2-2-2" data-name="레이어 2-2-2"><g id="레이어_1-2-2-2-2" data-name="레이어 1-2-2-2"><path class="cls-1" d="M1920,910v170H0V900.37c334.56-63.48,608.83-29.72,719.94-10.21,245.94,22.68,271.23,12.61,619.13,35.36C1510.81,936.75,1643.33,969.19,1920,910Z"/></g></g></g></g><g id="레이어_2-3" data-name="레이어 2-3"><g id="레이어_1-2-3" data-name="레이어 1-2-3"><g id="레이어_2-2-3" data-name="레이어 2-2-3"><g id="레이어_1-2-2-3" data-name="레이어 1-2-2-3"><g id="레이어_2-2-2-2-2" data-name="레이어 2-2-2-2"><g id="highlight"><path class="cls-2" d="M742.41,1002.74l165.94-14.93c55-4.89,110-11.42,165-13.92a616,616,0,0,1,92,2.81,40.37,40.37,0,0,0,25.44-5.32,49.1,49.1,0,0,0,22-15.57,66.09,66.09,0,0,0,15.34-25.59,76.7,76.7,0,0,0,7.94-31.33c.79-21.33-3-43.91-14.6-59.68-11.72-15.94-26.29-25.57-43.92-27.43a613.94,613.94,0,0,0-82.14-3.14c-27,.8-54,3.43-81,5.83L848.53,829.42l-93.87,8.44a40.52,40.52,0,0,0-25.39,5.24,49.41,49.41,0,0,0-22.07,15.6,65.92,65.92,0,0,0-15.35,25.59,77.11,77.11,0,0,0-7.92,31.38c-.84,21.37,3,43.9,14.6,59.63l12.12,13.86a54.18,54.18,0,0,0,31.8,13.6Z"/></g><g id="title"><text class="cls-3" transform="translate(706.91 961.99) rotate(-4)">ABOUT US</text></g></g></g></g></g></g><rect class="cls-4" width="1920" height="1080"/></g></g></g></g></svg>