<?xml version="1.0" encoding="utf-8"?>
<!-- Generator: Adobe Illustrator 24.3.0, SVG Export Plug-In . SVG Version: 6.00 Build 0)  -->
<svg version="1.1" id="aboutus-hero" xmlns="http://www.w3.org/2000/svg" xmlns:xlink="http://www.w3.org/1999/xlink" x="0px"
	 y="0px" viewBox="0 0 1920 1080" style="enable-background:new 0 0 1920 1080;" xml:space="preserve">
<style type="text/css">
	.st0{fill:#FCFCFC;}
	.st1{fill:#37CDC2;}
	.st2{fill:none;}
</style>
<path id="waveline" class="st0" d="M1920,910v170H0V900.4c334.6-63.5,608.8-29.7,719.9-10.2c245.9,22.7,271.2,12.6,619.1,35.4
	C1510.8,936.8,1643.3,969.2,1920,910z"/>
<path id="highlight" class="st1" d="M742.4,1002.7l165.9-14.9c55-4.9,110-11.4,165-13.9c30.7-1.4,61.4-0.4,92,2.8
	c8.8,1.1,17.8-0.8,25.4-5.3c8.6-3,16.3-8.4,22-15.6c7-7.2,12.2-16,15.3-25.6c4.8-9.8,7.5-20.4,7.9-31.3c0.8-21.3-3-43.9-14.6-59.7
	c-11.7-15.9-26.3-25.6-43.9-27.4c-27.3-2.9-54.7-3.9-82.1-3.1c-27,0.8-54,3.4-81,5.8l-165.9,15l-93.9,8.4
	c-8.8-1.1-17.7,0.8-25.4,5.2c-8.7,3-16.3,8.4-22.1,15.6c-7,7.2-12.3,16-15.3,25.6c-4.8,9.8-7.5,20.5-7.9,31.4
	c-0.8,21.4,3,43.9,14.6,59.6l12.1,13.9C719.5,997,730.6,1001.8,742.4,1002.7L742.4,1002.7z"/>
<image style="overflow:visible;enable-background:new    ;" width="2167" height="788" id="ABOUTUS" xlink:href="A10AA985.png"  transform="matrix(0.2391 0 0 0.2391 699.87 815.28)">
</image>
<rect id="frame" y="0" class="st2" width="1920" height="1080"/>
</svg>
