<?xml version="1.0" encoding="utf-8"?>
<!-- Generator: Adobe Illustrator 24.3.0, SVG Export Plug-In . SVG Version: 6.00 Build 0)  -->
<svg version="1.1" id="aboutus-hero" xmlns="http://www.w3.org/2000/svg" xmlns:xlink="http://www.w3.org/1999/xlink" x="0px"
	 y="0px" viewBox="0 0 1920 1080" style="enable-background:new 0 0 1920 1080;" xml:space="preserve">
<style type="text/css">
	.st0{fill:#FCFCFC;}
	.st1{fill:#37CDC2;}
	.st2{fill:none;}
</style>
<path id="waveline" class="st0" d="M1920,910v170H0V900.4c334.6-63.5,608.8-29.7,719.9-10.2c245.9,22.7,271.2,12.6,619.1,35.4
	C1510.8,936.8,1643.3,969.2,1920,910z"/>
<path id="highlight" class="st1" d="M742.4,1002.7l165.9-14.9c55-4.9,110-11.4,165-13.9c30.7-1.4,61.4-0.4,92,2.8
	c8.8,1.1,17.8-0.8,25.4-5.3c8.6-3,16.3-8.4,22-15.6c7-7.2,12.2-16,15.3-25.6c4.8-9.8,7.5-20.4,7.9-31.3c0.8-21.3-3-43.9-14.6-59.7
	c-11.7-15.9-26.3-25.6-43.9-27.4c-27.3-2.9-54.7-3.9-82.1-3.1c-27,0.8-54,3.4-81,5.8l-165.9,15l-93.9,8.4
	c-8.8-1.1-17.7,0.8-25.4,5.2c-8.7,3-16.3,8.4-22.1,15.6c-7,7.2-12.3,16-15.3,25.6c-4.8,9.8-7.5,20.5-7.9,31.4
	c-0.8,21.4,3,43.9,14.6,59.6l12.1,13.9C719.5,997,730.6,1001.8,742.4,1002.7L742.4,1002.7z"/>
<path d="M816.6,904c4.3,0.6,7.3,3.5,10.3,6.5c2.2,2.2,3.6,4.9,4.4,7.8c1.6,5.6,2,11.3,1,17.1c-1.4,8-6.4,13-13.7,16
	c-5.2,2.1-10.7,3.3-16.4,3.7c-6.8,0.5-13.6,0.8-20.6,1.2c-0.4-2.3-0.9-4.4-1.1-6.6c-1.3-12.9-2.5-25.9-3.6-38.8
	c-0.6-7.3-1-14.7-1.2-22c-0.1-2.9,0.2-5.9,0.9-8.7c1.6-6.6,6-10.9,12.6-12.5c6.1-1.5,12.3-1.5,18.5-0.1c6.6,1.5,10.7,5.6,12.3,12.2
	c1.5,6.2,1.9,12.4-0.3,18.4C819,900.1,817.7,902,816.6,904z M790.5,945.3c6.9-0.5,13.4-0.9,19.7-2.9c2.7-0.9,5.2-2.3,7.7-3.7
	c2.5-1.5,3.9-4,4.2-6.9c0.3-3.7,0-7.4-1.4-10.9c-0.9-2.4-2.5-4-4.8-5.1c-2.1-1-4.3-1.6-6.6-1.4c-3,0.2-6,0.3-9,0.8
	c-4,0.6-8,1.4-12.3,2.2C788.8,926.7,789.6,935.9,790.5,945.3z M787.7,906.3c5.2-1.2,10.4-1.8,15-4.1c2-1,3.9-2.3,5.5-3.9
	c3.4-3.6,3.9-8.1,3.1-12.8c-0.6-3.5-2.4-6.2-5.8-7.6c-5.1-2-10.3-1.5-15.2,0.8c-2,0.9-3.5,2.7-4,4.9c-0.3,1.4-0.3,2.8-0.2,4.3
	c0.2,3.2,0.5,6.3,0.8,9.5C787.1,900.2,787.4,903.1,787.7,906.3z"/>
<path d="M906.6,906.9c0,9-1.5,17.7-5.8,25.8c-3.1,5.8-7,10.9-12.8,14.3c-9.7,5.6-23.3,4.1-31.6-6.1c-6.6-8.2-10.5-17.4-12.6-27.6
	c-1.7-8.3-2.1-16.6-0.5-24.9c1.1-5.4,3.1-10.5,6.4-15c4.9-6.7,11.8-10,19.7-11.4c4.3-0.8,8.5-1.1,12.8-0.1
	c6.2,1.5,10.9,5.3,14.7,10.2c4.6,5.8,7,12.6,8.2,19.8c0.8,4.9,1.2,9.9,1.8,14.9C906.8,906.9,906.7,906.9,906.6,906.9z M895.3,905.3
	c-0.2-2.1-0.4-6.1-0.9-10.1c-0.7-5.3-2-10.4-4.7-15.2c-2.2-3.8-5.3-6.5-9.6-7.2c-2.5-0.4-5.2-0.4-7.7-0.1c-8,1-14,4.8-17.1,12.5
	c-1.5,3.8-2.2,7.7-2.3,11.7c-0.3,9.6,2.2,18.6,6.3,27.1c2.4,5,5.6,9.3,10.6,12c5,2.7,13,3.3,18.3-3.1c2.5-2.9,4.2-6.3,5.3-9.9
	C894.9,918,895.2,912.7,895.3,905.3z"/>
<path d="M1185.7,840.2c4.8,0,9.4,0.6,13.7,2.8c3,1.5,5.1,3.7,4.8,7.4c-0.2,3-2.2,4.6-5.1,3.8c-2.5-0.7-5-1.6-7.5-2.4
	c-4.2-1.5-8.6-2.6-13.1-1.7c-4.3,0.8-8.1,2.8-11.3,5.9c-4.5,4.4-2.7,11.1,1.8,14c2.6,1.7,5.6,2.5,8.6,3c4,0.8,8,1.3,12,2
	c3.8,0.7,7.4,2,10.8,4.1c4.3,2.6,7.1,6.3,8.4,11.1c2,7.7,2,15.4-0.7,22.9c-3.2,8.8-9.5,13.8-18.8,15.2c-9.7,1.4-18.8-0.6-27.3-5.1
	c-1.5-0.8-2.8-2-4-3.3c-1.1-1.2-1.1-2.8-0.4-4.3c0.8-1.9,2.3-3.3,4.1-4.2c1.1-0.5,2.2-0.6,3.3-0.1c2.9,1.2,5.8,2.3,8.6,3.4
	c3.4,1.3,6.9,2.1,10.6,2.3c3.7,0.2,6.9-1,9.6-3.5c5-4.8,6.8-10.6,5.1-17.4c-1-4.1-3.8-6.7-7.5-8.4c-3.9-1.7-8.1-2.4-12.3-2.9
	c-4.8-0.5-9.5-1.4-14-3.3c-6.7-2.7-10.4-7.7-11.4-14.8c-1-6.7,0.4-12.7,5.5-17.5c3.2-3,7-5.1,11.1-6.5
	C1175.2,841,1180.4,840.3,1185.7,840.2z"/>
<path d="M710.6,954.2c0.7-12.4,2.6-23.7,4.9-35c1.9-9.3,4.1-18.5,6.3-27.8c1.2-4.9,3.1-9.6,6-13.7c1.2-1.6,2.6-3.2,4.2-4.3
	c3.7-2.7,8-2,10.4,1.7c2.4,3.7,4.6,7.7,6.5,11.8c5.1,11,8.9,22.5,12.2,34.1c3,10.5,5.7,21.1,8.5,31.6c0.8,2.9-0.5,4.8-3.4,5.4
	c-3.7,0.7-6.4-0.9-7.4-4.6c-2.1-7.5-4.2-15.1-6.3-22.6c-0.3-1.1-0.8-2.2-1.2-3.4c-0.3-0.8-0.9-1.3-1.7-1.4c-3.5-0.3-7-0.7-10.4-0.9
	c-3.5-0.2-7.1-0.2-10.6-0.2c-3.9,0-4.5,0.4-5.1,4.3c-0.9,5.7-1.5,11.5-2.2,17.3c-0.4,3.8-0.6,7.7-0.9,11.5c-0.1,1.5-0.8,2.5-2.2,2.8
	c-1.6,0.3-3.2,0.5-4.8,0.4c-1.5-0.1-2.5-1.2-2.7-2.8C710.7,956.7,710.7,955.1,710.6,954.2z M739.2,916.3c0-0.1,0-0.1,0-0.2
	c1.9,0,3.8,0.1,5.7,0c3.4-0.2,3.7-0.6,2.7-3.9c-1.2-4-2.5-8-3.9-11.9c-1.4-3.8-3-7.5-4.7-11.2c-0.4-0.9-1.5-1.6-2.3-2.4
	c-0.7,0.8-1.7,1.5-2.1,2.4c-1.4,3-2.7,6.1-3.8,9.3c-1.5,4.7-2.8,9.4-4,14.2c-0.5,1.9-0.1,2.4,1.8,2.7
	C732.2,915.8,735.7,916,739.2,916.3z"/>
<path d="M1081,869.8c0-5.1,0-10.1,0-15.2c0-2.6,3.5-6.2,6.1-6.5c2.4-0.2,4.2,1.6,4.2,4.2c0,8.4-0.1,16.8,0,25.2
	c0.2,13.2,3.8,25.3,12.2,35.6c2.7,3.3,5.7,6.2,9.6,8.1c5.2,2.6,10.3,1.7,14-2.7c4.4-5.2,7.2-11.2,7.3-18c0.1-7-0.2-14.1-0.5-21.1
	c-0.3-7.5-0.9-15-2.3-22.4c-0.4-2.1-0.9-4.1-1.4-6.2c-0.8-3.4,1.9-7.4,5.2-8c1.6-0.3,4.1,1.2,4.6,3c2.3,9.2,3.4,18.6,4,28.1
	c0.3,5.6,0.9,11.1,1,16.7c0.1,9.5-1.3,18.7-6.1,27.1c-3.2,5.6-7.3,10.2-13.1,13.1c-6.6,3.3-13.1,3.3-19.5-0.4
	c-7.7-4.4-13.3-10.8-17.5-18.5c-4.9-9.2-7.2-19.1-7.7-29.4c-0.2-4.3,0-8.6,0-12.9C1081.1,869.8,1081.1,869.8,1081,869.8z"/>
<path d="M915,881.1c0-4.9,0-9.8,0-14.7c0-2.9,3.7-6.7,6.6-6.7c2-0.1,3.8,2,3.8,4.5c0,5-0.2,9.9-0.1,14.9c0.1,6,0.1,12,0.8,17.9
	c1.4,12,6.1,22.6,14.7,31.2c2.3,2.3,4.9,4.3,8.1,5.4c4.6,1.6,9.2,0.4,12.5-3.5c4.4-5.4,7.2-11.6,7.3-18.6c0.1-6.1-0.2-12.2-0.5-18.2
	c-0.3-5.8-0.7-11.5-1.3-17.2c-0.5-4.5-1.5-9-2.5-13.5c-0.8-3.7,2.4-8,5.9-7.9c1.8,0.1,3.3,1.3,3.8,3c2.3,8.9,3.4,18,4,27.1
	c0.4,6,1,11.9,1,17.9c0,8.5-0.9,16.9-5.1,24.7c-2.3,4.3-4.8,8.4-8.7,11.6c-4.6,3.7-9.6,6.2-15.7,6.1c-4.5-0.1-8.4-2-12-4.4
	c-8.2-5.6-13.7-13.4-17.4-22.5c-3.3-8.2-4.9-16.7-5.1-25.5C915,888.8,915.1,885,915,881.1C915,881.1,915,881.1,915,881.1z"/>
<path d="M1008.2,864.9c-2.5,0.2-5,0.4-7.5,0.6c-4.7,0.3-9.4,0.6-14.1,0.9c-3.4,0.2-5.5-2.7-4.6-6c0.8-2.7,3.1-4.5,5.9-4.8
	c9-0.7,18.1-1.5,27.1-2.3c8.5-0.7,17-1.4,25.5-2.1c2.5-0.2,4.6,1.8,4.6,4.2c0,0.7,0,1.4-0.1,2.1c-0.5,2.7-2.1,4.1-4.9,4.3
	c-6.9,0.6-13.7,1.3-20.6,1.9c-0.1,0-0.2,0.1-0.4,0.1c0,2.1-0.1,4.2,0,6.3c0.6,10.5,1.3,21,2.1,31.5c0.7,9.3,1.5,18.6,2.2,27.9
	c0.2,2.3,0.4,4.5,0.4,6.8c0.1,2.5-0.8,3.4-3.2,4c-0.4,0.1-0.9,0.2-1.3,0.2c-3.8,0.6-5.5-0.6-6-4.4c-0.8-7.3-1.6-14.5-2.2-21.8
	c-0.8-9.6-1.4-19.1-2-28.7C1008.8,878.9,1008.6,872,1008.2,864.9z"/>
<rect id="frame" y="0" class="st2" width="1920" height="1080"/>
</svg>
