<?xml version="1.0" encoding="utf-8"?>
<!-- Generator: Adobe Illustrator 24.3.0, SVG Export Plug-In . SVG Version: 6.00 Build 0)  -->
<svg version="1.1" id="campaign-hero_1_" xmlns="http://www.w3.org/2000/svg" xmlns:xlink="http://www.w3.org/1999/xlink" x="0px"
	 y="0px" viewBox="0 0 1920 540.5" style="enable-background:new 0 0 1920 540.5;" xml:space="preserve">
<style type="text/css">
	.st0{fill:#FCFCFC;}
	.st1{fill:none;}
	.st2{fill:#37CDC2;}
</style>
<path id="waveline_1_" class="st0" d="M1920,394.6V540h-218.1H0V401.8c143,9.6,243.5-8.5,362.8-16.3
	C710.7,362.8,736,372.8,982,350.2c111.1-19.5,385.4-53.3,719.9,10.2L1920,394.6z"/>
<rect id="frame" y="0" class="st1" width="1920" height="540.5"/>
<path id="highlight" class="st2" d="M697.5,474.8L898,456.6c66.4-6,132.9-13.7,199.2-17.1c37.1-1.8,74.2-1.1,111.2,2.2
	c10.6,1.1,21.3-1,30.7-6.1c10.3-3.3,19.5-9.3,26.6-17.4c8.3-7.9,14.6-17.6,18.4-28.4c5.8-10.7,9-22.6,9.5-34.7
	c0.9-23.6-3.8-48.5-17.8-65.8c-14.2-17.5-31.9-28-53.2-29.8c-33-2.9-66.1-3.7-99.2-2.6c-32.6,1.1-65.2,4.4-97.9,7.3L825,282.3
	l-113.4,10.3c-10.6-1.1-21.3,1-30.7,6c-10.3,3.3-19.4,9.4-26.6,17.5c-8.3,7.9-14.6,17.6-18.5,28.4c-5.8,10.7-9,22.6-9.5,34.8
	c-1,23.6,3.8,48.5,17.9,65.7l14.7,15.2C670,468.8,683.4,473.9,697.5,474.8L697.5,474.8z"/>
<path d="M894.4,351.4c-0.9,1.4-1.5,2.6-2.3,3.8c-5.1,7.6-11.6,13.6-20.4,16.4c-5.7,1.8-11.4,2.4-17.2,0.4c-3.2-1.1-6-3-8.4-5.4
	c-0.3-0.2-0.5-0.5-0.8-0.8c0,1.3-0.1,2.6,0,3.8c0.8,13.5,1.5,27,2.3,40.5c0.1,1.2,0.1,2.3,0.2,3.5c0.5,4.9-2.3,7.2-6.2,8.1
	c-3.8,0.8-5.6-0.5-5.9-4.4c-0.4-6.8-0.8-13.6-1.2-20.5c-0.5-9-1.1-18-1.6-27.1c-0.5-8.6-1-17.2-1.5-25.7c-0.3-4.2-0.5-8.4-0.8-12.6
	c-0.2-2.3,0.4-4.4,1.8-6.2c1.5-2,3.4-2.6,6.1-1.9c2.6,0.7,3.9,2.1,4.3,4.5c0.7,4.5,1.4,9.1,2.3,13.6c1,4.8,3,9.2,6,13
	c3.6,4.6,8.1,6.3,14,5.2c9.8-1.9,16.6-7.3,20.8-16.3c2.9-6.3,5-12.9,7-19.5c0.4-1.4,1.1-2.8,1.9-4.1c1-1.7,2.6-2.6,4.5-2.8
	c1.8-0.3,3.5,0.3,4.3,1.9c0.7,1.4,1.3,3,1.5,4.6c1.2,14.2,2.3,28.4,3.2,42.6c0.9,13.5,1.6,27,2.3,40.6c0.1,2.3-0.1,4.6-0.4,6.9
	c-0.3,2.2-1.8,3.6-4,4.1c-0.8,0.2-1.6,0.3-2.4,0.4c-3,0.4-4.7-0.9-4.9-4c-0.4-5-0.6-10-1-15c-0.9-12.6-1.7-25.1-2.6-37.7
	C895,358.2,894.7,355,894.4,351.4z"/>
<path d="M1234.8,375.9c-0.9-10.5-1.9-20.7-2.8-30.9c-0.8-9.4-1.8-18.9-2.5-28.3c-0.3-4.3-0.2-8.6-0.3-12.9c0-0.6,0.2-1.1,0.2-1.7
	c0.5-4.4,4-5.2,7.3-4.5c2.9,0.6,4.9,3.3,5.1,6.5c0.6,9.6,1.1,19.2,1.7,28.8c0.7,10.2,1.3,20.4,2.1,30.6c0.6,7.9,1.4,15.8,2.2,23.6
	c0.3,3.1-0.4,5.9-2.2,8.4c-0.8,1.1-1.8,1.8-3.3,2c-4.6,0.5-8-1.2-10.4-5.1c-3.8-6.2-7.5-12.4-11.3-18.7
	c-6.9-11.4-13.8-22.8-21.9-33.5c-2.9-3.9-6.1-7.6-9.2-11.4c-0.2-0.2-0.4-0.4-0.7-0.8c0.1,1.9,0.2,3.5,0.2,5.1
	c0.5,11.2,1.1,22.4,1.4,33.5c0.2,8.6,0,17.2,0,25.8c0,1.3-0.1,2.6-0.2,3.8c-0.1,1.8-1.1,3.2-2.9,3.5c-1.6,0.3-3.3,0.5-4.9,0.2
	c-2.1-0.3-3.3-1.8-3.5-3.9c-0.2-2.8-0.3-5.5-0.3-8.3c-0.2-11.5-0.3-22.9-0.7-34.4c-0.3-11.3-0.9-22.5-1.3-33.8
	c-0.1-2.2,0-4.5,0.2-6.7c0.2-2.9,2.7-4.6,5.6-4.1c2.4,0.4,4.4,1.8,6.3,3.2c4.8,3.8,8.7,8.4,12.5,13.1c7.3,9,13.4,18.8,19.6,28.5
	c4.5,7,8.9,14.2,13.3,21.2C1234.3,375.3,1234.5,375.4,1234.8,375.9z"/>
<path d="M1157,395.6c-1.4,1-2.7,2.1-4.1,3.1c-3.8,2.5-7.8,4.4-12.3,5.1c-7.1,1.1-13.3-0.9-18.7-5.5c-6.3-5.4-10.7-12.2-13.4-20
	c-6.2-17.5-6.2-34.8,1.8-51.8c4.9-10.5,12.7-18.2,23.9-21.9c9.4-3.2,18.7-2.9,27.6,2c0.9,0.5,1.7,1.1,2.5,1.7
	c2.9,2.3,3.4,5.2,2.3,8.9c-0.7,2.4-3.2,3.9-5.8,3.3c-2.3-0.5-4.5-1.5-6.8-2.2c-2-0.7-4-1.6-6-1.9c-5.7-0.9-10.9,0.8-15.6,4
	c-6.1,4.1-9.8,10.1-12.4,16.8c-2,5.4-2.8,11-2.9,16.8c-0.1,6.9,0.7,13.7,3.2,20.2c1.9,4.9,4.5,9.2,8.1,13c7.4,7.8,18.7,4.3,23-1.5
	c3.1-4.2,4.4-8.9,3.8-14.1c-0.2-1.5-0.4-3-0.8-4.5c-1-4.1-4.4-6.5-8.6-6.2c-2.5,0.1-4.9-0.3-7.2-1.4c-2.2-1.1-3.1-2.6-2.8-5
	c0.2-1.8,0.8-3.4,2-4.8c1-1.1,2.2-1.9,3.6-1.8c3.5,0.1,7.1-0.1,10.5,0.4c3.6,0.5,6.6,2.7,9.5,4.8c0.6,0.5,1.1,1.3,1.5,2
	c2.5,4.6,4.2,9.5,4.6,14.9c0.4,6.5,1,13,1.4,19.5c0.1,2.5,0,5-0.1,7.4c-0.2,4.5-2.8,5.8-7.1,5.5c-1.8-0.1-3.1-1-3.6-2.8
	C1157.6,398.1,1157.3,396.9,1157,395.6z"/>
<path d="M994,403.5c1-7.4,1.7-14.9,3.1-22.2c2.5-13.1,5.2-26.2,8.1-39.3c1.5-6.7,3.4-13.3,6.4-19.5c1.8-3.7,3.8-7.2,7.1-9.8
	c4.6-3.6,9.8-3,12.9,1.8c2.7,4.2,5,8.7,7.1,13.2c5.4,11.9,9.4,24.3,12.9,36.8c3.5,12.8,6.7,25.7,10,38.6c0.7,2.6-0.6,4.6-3.1,5.4
	c-4.6,1.4-8.1-0.5-9.4-5.1c-2.3-8.6-4.6-17.2-6.9-25.8c-0.3-1.2-0.8-2.4-1.2-3.6c-0.3-1-1-1.6-2.1-1.7c-3.1-0.3-6.1-0.8-9.2-1
	c-4.9-0.3-9.8-0.4-14.7-0.6c-0.5,0-1,0-1.4,0.1c-3.3,0.4-3.6,0.5-4.2,3.8c-0.9,5.3-1.8,10.6-2.4,16c-0.7,5.8-1,11.5-1.6,17.3
	c-0.2,2.2-1,3.3-3.2,3.7c-1.3,0.3-2.6,0.4-3.9,0.3c-2.6-0.2-3.9-1.5-4-4.1c-0.1-1.4,0-2.8,0-4.2C994.2,403.6,994.1,403.5,994,403.5z
	 M1026.3,360.9c3.1,0,5.6,0.1,8,0c3.2-0.2,3.6-0.7,2.7-3.9c-1.5-5.2-3.1-10.5-5-15.6c-1.4-4-3.1-8-5-11.8c-1.6-3.1-3-3.1-4.6,0
	c-1.5,3-2.9,6.1-4,9.3c-1.9,5.6-3.6,11.2-5.2,16.9c-0.8,3.2-0.3,3.7,3,4.1C1019.8,360.4,1023.4,360.7,1026.3,360.9z"/>
<path d="M819.1,423.1c-3.6,0-5.6-1.5-6.5-5c-2-7.6-4-15.1-6-22.7c-0.7-2.4-1.5-4.8-2.3-7.2c-0.3-1.1-1-1.7-2.1-1.8
	c-3.3-0.3-6.5-0.9-9.8-1c-5.2-0.3-10.5-0.4-15.7-0.4c-2.8,0-3.4,0.5-3.9,3.2c-0.9,5.1-1.8,10.3-2.4,15.5c-0.7,6.3-1.2,12.7-1.7,19
	c-0.1,1.2-0.8,2.1-1.9,2.6c-2,0.9-4.2,1.1-6.3,0.6c-1.8-0.4-2.9-1.8-2.8-3.9c0-3.3,0-6.6,0.3-9.8c2.4-20.9,6.6-41.5,11.9-61.8
	c1.7-6.4,3.8-12.8,7.5-18.3c1.3-2,3-3.9,4.9-5.4c4.4-3.4,9.5-2.7,12.5,1.9c2.7,4.3,5.1,8.8,7.2,13.4c5.4,11.7,9.3,24,12.7,36.4
	c3.5,12.9,6.8,25.8,10.1,38.7c0.8,3.1-0.8,5.4-4,5.9C820.3,423,819.7,423,819.1,423.1z M791.5,375.3c0,0,0-0.1,0-0.1
	c1.9,0,3.8,0,5.6,0c3.4-0.1,4.1-0.8,3.1-4.1c-2.4-8.6-5.1-17-8.8-25.2c-0.6-1.3-1.4-2.5-2.3-3.6c-0.8-1-1.4-0.9-2.3,0
	c-0.5,0.6-1,1.3-1.3,2c-1.5,3.5-3.1,7-4.4,10.6c-1.7,5-3.2,10.1-4.6,15.2c-0.8,3-0.3,3.7,2.8,4.1
	C783.4,374.7,787.5,374.9,791.5,375.3z"/>
<path d="M936,369.8c0.2,2.5,0.4,4.9,0.6,7.3c0.8,10.3,1.6,20.6,2.3,30.9c0.1,1.7-0.2,3.5-0.7,5.2c-0.5,1.8-1.9,2.7-3.7,2.9
	c-3.6,0.3-5.3,0-6.7-4.2c-0.9-2.8-1.2-5.8-1.6-8.8c-0.7-6.2-1.4-12.3-1.9-18.5c-0.7-8.2-1.3-16.5-1.8-24.8
	c-0.5-8.7-0.9-17.4-1.3-26.1c-0.1-2.6,0-5.3-0.1-7.9c-0.1-3.8,1.7-6.4,5.1-7.7c2.6-1,5.4-1.7,8.1-2.1c6.4-1,12.9-1.5,19.5-0.6
	c5.8,0.8,11.2,2.5,16,5.9c4.6,3.3,7.3,7.8,8,13.4c0.8,6.1,0.6,12.1-1.1,18.1c-2.7,10-9.5,15.2-19.5,16.9c-6.4,1.1-12.7,0.9-19.1,0.3
	C937.4,369.9,936.8,369.9,936,369.8z M934.8,358.2c5.7,0.6,11,0.9,16.3,0.3c4.1-0.5,8-1.4,10.7-4.9c1-1.3,2-2.7,2.5-4.2
	c1.1-3.1,1.2-6.4,1.3-9.7c0-4.4-1.8-7.7-5.7-9.8c-8.2-4.5-16.8-4.4-25.6-2c-0.7,0.2-1,0.6-1,1.4c0.1,3.6,0,7.3,0.2,10.9
	C933.8,346.3,934.4,352.2,934.8,358.2z"/>
<path d="M674.6,378.7c-0.1-8,0.6-15.9,3.7-23.3c5.6-13.1,15.7-20.9,29.2-24.4c8.7-2.3,17.4-1.6,26.2,0.1c1.3,0.3,2.6,0.6,4,0.9
	c2.1,0.4,3.5,1.8,4.1,3.8c0.6,2-0.1,3.8-1.7,5.2c-2.1,1.9-4.5,2.9-7.4,2.3c-7.4-1.4-14.9-1.6-22.2,0.3c-11,2.7-18.2,9.6-21,20.5
	c-3.2,12.4-2.4,24.6,2.3,36.6c1.6,4,4.1,7.5,7.1,10.6c5.2,5.4,11.3,6.9,18.4,4.6c5.7-1.8,11-4.6,16.3-7.4c1.9-1,3.8-1.9,5.7-2.8
	c0.5-0.3,1.1-0.4,1.7-0.6c2.7-0.6,4.6,0.9,4.8,3.7c0.2,3.1-1,5.6-3.5,7.2c-6.9,4.3-14,8.4-21.7,11.1c-4.2,1.5-8.6,2.6-13.1,2.4
	c-7.5-0.3-13.5-3.7-18.5-9.1c-7-7.7-10.9-16.8-12.7-26.8c-0.9-4.9-1.2-9.8-1.8-14.7C674.4,378.7,674.5,378.7,674.6,378.7z"/>
<path d="M1088.2,382.4c0,6.1,0,12.5,0,18.8c0,0.4-0.1,0.9-0.3,1.3c-1.2,3.2-5.8,5.6-9.1,4.8c-1.7-0.4-2.7-1.9-2.7-4
	c0-3.2,0.2-6.4,0.2-9.6c-0.1-13-0.7-25.9-1.8-38.8c-0.9-10.8-1.7-21.6-2.5-32.4c-0.2-2.2-0.3-4.4-0.5-6.6c-0.2-1.4,0.2-2.5,1-3.4
	c2-2.4,4.6-3.5,7.6-3.3c1.8,0.1,3.2,1.7,3.4,3.7c0.5,7.2,1,14.3,1.5,21.5c0.7,9.2,1.4,18.3,2,27.5
	C1087.5,368.6,1087.8,375.4,1088.2,382.4z"/>
</svg>
