<?xml version="1.0" encoding="utf-8"?>
<!-- Generator: Adobe Illustrator 24.3.0, SVG Export Plug-In . SVG Version: 6.00 Build 0)  -->
<svg version="1.1" id="campaign-hero_1_" xmlns="http://www.w3.org/2000/svg" xmlns:xlink="http://www.w3.org/1999/xlink" x="0px"
	 y="0px" viewBox="0 0 1920 540.5" style="enable-background:new 0 0 1920 540.5;" xml:space="preserve">
<style type="text/css">
	.st0{fill:#FCFCFC;}
	.st1{fill:none;}
	.st2{fill:#37CDC2;}
</style>
<path id="waveline_1_" class="st0" d="M1920,394.6V540h-218.1H0V401.8c143,9.6,243.5-8.5,362.8-16.3
	C710.7,362.8,736,372.8,982,350.2c111.1-19.5,385.4-53.3,719.9,10.2L1920,394.6z"/>
<rect id="frame" y="0" class="st1" width="1920" height="540.5"/>
<path id="highlight" class="st2" d="M697.5,474.8L898,456.6c66.4-6,132.9-13.7,199.2-17.1c37.1-1.8,74.2-1.1,111.2,2.2
	c10.6,1.1,21.3-1,30.7-6.1c10.3-3.3,19.5-9.3,26.6-17.4c8.3-7.9,14.6-17.6,18.4-28.4c5.8-10.7,9-22.6,9.5-34.7
	c0.9-23.6-3.8-48.5-17.8-65.8c-14.2-17.5-31.9-28-53.2-29.8c-33-2.9-66.1-3.7-99.2-2.6c-32.6,1.1-65.2,4.4-97.9,7.3L825,282.3
	l-113.4,10.3c-10.6-1.1-21.3,1-30.7,6c-10.3,3.3-19.4,9.4-26.6,17.5c-8.3,7.9-14.6,17.6-18.5,28.4c-5.8,10.7-9,22.6-9.5,34.8
	c-1,23.6,3.8,48.5,17.9,65.7l14.7,15.2C670,468.8,683.4,473.9,697.5,474.8L697.5,474.8z"/>
<image style="overflow:visible;enable-background:new    ;" width="2471" height="867" id="campaign" xlink:href="576D3B32.png"  transform="matrix(0.24 0 0 0.24 663.6 270.98)">
</image>
</svg>
