<svg xmlns="http://www.w3.org/2000/svg" viewBox="0 0 746.67 365.65"><defs><style>.cls-1{fill:#37cdc2;}.cls-2{font-size:180px;font-family:PatrickHand-Regular, Patrick Hand;}</style></defs><g id="레이어_2" data-name="레이어 2"><g id="highlight"><path class="cls-1" d="M203.2,210.09A832.61,832.61,0,0,1,345.87,177.8l-20.58,2.77a832.52,832.52,0,0,1,187.34-3.81,58.35,58.35,0,0,0,29.82-6.66,58.12,58.12,0,0,0,24.91-16,58.06,58.06,0,0,0,16-24.9A58.37,58.37,0,0,0,590,99.37c-.89-20-7.47-40.77-22.66-54.72l-15.67-12.1A77,77,0,0,0,512.63,22a829.3,829.3,0,0,0-131.29-1.81A963.6,963.6,0,0,0,233.58,41.31q-36.2,8.14-71.53,19.53c-19,6.11-36,18-46.25,35.56a57.6,57.6,0,0,0-9.19,28.78A58.62,58.62,0,0,0,108,156c6.06,18.72,17.66,36.79,35.56,46.25s39.69,14.2,59.64,7.8Z"/><path class="cls-1" d="M116.77,356.85l196.27-25c65-8.26,129.94-18,195.16-24A938.21,938.21,0,0,1,618,304.35a58.28,58.28,0,0,0,29.82-6.67,58,58,0,0,0,24.9-16,58.06,58.06,0,0,0,16-24.91A58.33,58.33,0,0,0,695.4,227c-.9-20-7.47-40.78-22.67-54.73-15.36-14.1-33.57-22.12-54.72-22.66a935.62,935.62,0,0,0-98.07,2.55c-32.07,2.54-64,6.81-95.87,10.87L227.79,188l-111,14.12A58.35,58.35,0,0,0,87,208.73a58,58,0,0,0-24.9,16,58,58,0,0,0-16,24.91,58.35,58.35,0,0,0-6.66,29.82c.89,20,7.47,40.77,22.67,54.72l15.66,12.1a77,77,0,0,0,39.06,10.57Z"/></g><g id="title"><text class="cls-2" transform="translate(197.75 149.49)">SAVE<tspan x="-177.92" y="160">THE EARTH</tspan></text></g></g></svg>