<svg xmlns="http://www.w3.org/2000/svg" viewBox="0 0 700.41 338.44"><defs><style>.cls-1{fill:#37cdc2;}</style></defs><g id="레이어_2" data-name="레이어 2"><g id="레이어_1-2" data-name="레이어 1"><g id="highlight"><path class="cls-1" d="M182.89,191.68a831.88,831.88,0,0,1,142.67-32.29L305,162.16a831.94,831.94,0,0,1,187.34-3.81,58.41,58.41,0,0,0,29.82-6.66,58.17,58.17,0,0,0,24.91-16,58,58,0,0,0,16-24.9A58.27,58.27,0,0,0,569.69,81c-.89-20-7.47-40.77-22.66-54.72l-15.67-12.1a76.87,76.87,0,0,0-39-10.55A828.09,828.09,0,0,0,361,1.78,963.92,963.92,0,0,0,213.27,22.9Q177.08,31,141.74,42.43c-19,6.11-36,18-46.25,35.56a57.6,57.6,0,0,0-9.19,28.78,58.77,58.77,0,0,0,1.39,30.82c6.06,18.72,17.66,36.79,35.56,46.25s39.69,14.2,59.64,7.8Z"/><path class="cls-1" d="M96.46,338.44l196.27-25c65-8.26,129.94-18,195.16-24a938.08,938.08,0,0,1,109.8-3.5,58.42,58.42,0,0,0,29.82-6.67,58,58,0,0,0,24.9-16,58,58,0,0,0,16-24.91,58.27,58.27,0,0,0,6.68-29.77c-.9-20-7.47-40.78-22.67-54.73-15.36-14.1-33.57-22.12-54.72-22.66a933,933,0,0,0-98.07,2.55c-32.07,2.54-64,6.81-95.87,10.87l-196.28,25-111,14.12a58.3,58.3,0,0,0-29.79,6.61,58,58,0,0,0-24.9,16,58,58,0,0,0-16,24.91,58.31,58.31,0,0,0-6.66,29.82c.89,20,7.47,40.77,22.67,54.72l15.66,12.1a77.06,77.06,0,0,0,39.06,10.57Z"/></g><path d="M490.08,239.54c1,.74,1.65,1.27,2.34,1.77a168.85,168.85,0,0,1,28.07,25A116.85,116.85,0,0,1,528,276a20.57,20.57,0,0,1,3.32,7.65,6,6,0,0,1-2,6.06c-2.65,2.48-6.73,3.07-9.51,1.2a6.85,6.85,0,0,1-2.37-2.59c-3.13-6.7-7.7-12.32-12.88-17.47a167.61,167.61,0,0,0-26.2-20.92c-.32-.21-.68-.36-1.35-.72,0,1.15,0,2,0,2.95.32,10.31.6,20.62,1,30.93.19,5-5.09,8.92-8.95,8.89-2.71,0-4.65-2.11-4.76-5.26-.15-4.55-.29-9.11-.33-13.67-.11-12.47-.13-24.95-.25-37.42-.12-12.63-.34-25.27-.44-37.9a45.8,45.8,0,0,1,.52-8.11c1-5.75,4.36-9.84,9.49-12.5a48.46,48.46,0,0,1,17.15-5c5.76-.65,11.47-.73,17.11.94a43.56,43.56,0,0,1,20,12.23,19.74,19.74,0,0,1,5.61,11.67,19.4,19.4,0,0,1-2,10.22,46.45,46.45,0,0,1-10.23,13.5,87.54,87.54,0,0,1-28.61,18.06C491.74,238.93,491.14,239.14,490.08,239.54Zm-12.67-10.37a17.6,17.6,0,0,0,6.72-.76c11-2.85,20.61-8.45,29.17-15.86a23.88,23.88,0,0,0,3.8-4.29,11.22,11.22,0,0,0-1.31-14.84,19.77,19.77,0,0,0-7.5-4.6c-9.56-3.49-19.24-3.21-29-.67-2,.51-2,.63-2,2.92q0,18-.08,35.93C477.29,227.71,477.37,228.41,477.41,229.17Z"/><path d="M646.35,222.16c13.47,2.64,26.85,2.56,40.38,2.18,0-1.73,0-3.22,0-4.72-.07-13.68-.17-27.35-.21-41,0-4.16,1.4-5.7,5.54-6.39a15.36,15.36,0,0,1,2.63-.17c3.43,0,5.19,1.52,5.62,4.9a21.27,21.27,0,0,1,.1,2.88c0,25.52,0,51-.11,76.55-.06,9.75-.54,19.5-.81,29.25a4.67,4.67,0,0,1-3.24,4.57,13.68,13.68,0,0,1-6.36.81,3.6,3.6,0,0,1-3.39-3.47,36.3,36.3,0,0,1-.11-4.55q.27-21.23.59-42.46c0-.63,0-1.27,0-2.16-6.84,0-13.6.22-20.34-.06s-13.36-1.08-20.19-1.67a7.8,7.8,0,0,0-.2,1.46c.38,11.51.74,23,1.21,34.52.18,4.4.62,8.78.93,13.16a4.51,4.51,0,0,1-2.43,4.59,12.82,12.82,0,0,1-7.64,1.54c-2.23-.21-3.39-1.56-3.64-4.06-.32-3.34-.64-6.68-.87-10a546.44,546.44,0,0,1-1.22-54.9c.43-13.11.5-26.23.73-39.34,0-.64,0-1.28,0-1.92a8.16,8.16,0,0,1,11-7,3.49,3.49,0,0,1,2.37,3.06c.13,1.9.13,3.82.1,5.73q-.3,18.6-.63,37.18C646.23,221,646.3,221.5,646.35,222.16Z"/><path d="M148.62,238.18c-13.68.51-27.08.44-40.5-1.88a10.74,10.74,0,0,0-.25,1.78c.38,11.43.74,22.86,1.21,34.28.18,4.47.63,8.94,1,13.4a4.53,4.53,0,0,1-2.44,4.59,12.82,12.82,0,0,1-7.64,1.54c-2.21-.21-3.39-1.58-3.64-4.06-.32-3.34-.64-6.69-.87-10a541,541,0,0,1-1.23-54.18c.42-13.11.5-26.23.73-39.35,0-1,0-2.07.07-3.11a6.29,6.29,0,0,1,4.25-6.09,10.07,10.07,0,0,1,5.86-.71,3.72,3.72,0,0,1,3.3,3.31,18.16,18.16,0,0,1,.18,2.86q-.34,20-.73,40.06c0,.47.06.94.1,1.56,13.37,2.7,26.81,2.54,40.38,2.22,0-2,0-3.71,0-5.45-.07-13.44-.17-26.87-.19-40.31,0-4.19,1.39-5.71,5.52-6.4a15.36,15.36,0,0,1,2.63-.17c3.51,0,5.3,1.61,5.66,5.13.08.8.06,1.6.06,2.4,0,25.84,0,51.68-.11,77.51,0,9.52-.54,19-.8,28.54a4.65,4.65,0,0,1-3.23,4.56,13.84,13.84,0,0,1-6.37.82,3.54,3.54,0,0,1-3.35-3.23,21.44,21.44,0,0,1-.18-3.59q.3-22.07.63-44.14Z"/><path d="M225.18,11.88a51.31,51.31,0,0,1,17.22,2.77,22.51,22.51,0,0,1,8.6,5.09,8.77,8.77,0,0,1,2.64,7.42c-.39,3.46-2.63,6.86-7.48,5.18-3-1-6-2.27-8.89-3.56A45,45,0,0,0,225.2,25c-8.68-1.18-16.14,1.65-22.49,7.34-5.55,5-3.88,12.73-.26,16.64a19.05,19.05,0,0,0,7,4.56,91.09,91.09,0,0,0,17.3,4.77,52.31,52.31,0,0,1,14.94,5c9.11,4.88,14.15,12.38,15,22.73a55.77,55.77,0,0,1-3,24.54,34.28,34.28,0,0,1-4.88,8.77,28.83,28.83,0,0,1-20.05,11.43c-14.12,1.89-26.95-1.71-38.86-9.13a20.32,20.32,0,0,1-4.63-4.1c-1.91-2.26-1.86-4.56-.33-7.1a11.7,11.7,0,0,1,4.74-4.3,5.76,5.76,0,0,1,5.51-.16c4,2,8,4,12.1,5.82A39.12,39.12,0,0,0,223,115.48a14.54,14.54,0,0,0,6.71-1.52A23.61,23.61,0,0,0,242,88.14,16.87,16.87,0,0,0,233.53,77a49.07,49.07,0,0,0-13.73-4.86c-4.82-1.09-9.67-2.1-14.45-3.39A39.2,39.2,0,0,1,194.91,64C188.39,60,185.06,54,184.14,46.48A33.09,33.09,0,0,1,184.33,36a24.31,24.31,0,0,1,10.38-15.56,45.12,45.12,0,0,1,20.44-7.68C218.47,12.28,221.84,12.15,225.18,11.88Z"/><path d="M373.1,283.5a132.1,132.1,0,0,1,3-20.15,584.41,584.41,0,0,1,16.24-60.63c1.84-5.54,3.78-11.08,6.76-16.12a75.76,75.76,0,0,1,6.3-9,13.49,13.49,0,0,1,7.35-4.71c3.66-.9,6.88-.09,9.35,2.77a26.54,26.54,0,0,1,3.4,5.19,153.11,153.11,0,0,1,9.57,24.28A460.77,460.77,0,0,1,447,253.25c2.11,10.58,4,21.21,5.95,31.81a4.89,4.89,0,0,1-3.52,5.94c-5.21,1.73-10-.9-11.1-6.28-1.8-8.68-3.44-17.4-5.22-26.09-.63-3-1.53-6-2.21-9.08a3.61,3.61,0,0,0-3.24-3c-4-.65-8-1.39-12.07-1.91-4.44-.56-8.9-1-13.36-1.34a49.62,49.62,0,0,0-5,0,3.37,3.37,0,0,0-3.51,2.68c-.77,2.85-1.77,5.66-2.28,8.56-1.84,10.62-3.53,21.28-5.25,31.93-.46,2.81-1.19,3.83-4,4.29a16.83,16.83,0,0,1-5.44,0c-2.44-.4-3.53-1.9-3.67-4.33C373.06,285.49,373.1,284.61,373.1,283.5Zm49.27-50.25,0-.27c1,0,1.92.05,2.87,0,1.66-.11,2-.39,2.06-2a10.91,10.91,0,0,0-.24-3.08c-1.63-6.5-3.22-13-5-19.45-1.05-3.76-2.42-7.43-3.79-11.08a16,16,0,0,0-2.28-3.91c-.85-1.12-1.65-1.13-2.61-.1a15.89,15.89,0,0,0-2.39,3.26,162,162,0,0,0-11.81,28.47c-.14.46-.2.94-.3,1.41-.53,2.61-.17,3.22,2.41,4a13.93,13.93,0,0,0,2.1.5C409.71,231.74,416,232.49,422.37,233.25Z"/><path d="M264.67,123.55a136,136,0,0,1,2.94-19.62,570.62,570.62,0,0,1,16.86-62.7,84.54,84.54,0,0,1,7.2-16.43,36.27,36.27,0,0,1,6.24-8.17,15.06,15.06,0,0,1,5.65-3.52c4.2-1.36,8.07-.35,10.72,3.18A38.44,38.44,0,0,1,318,22.67c5.18,10.77,8.78,22.12,11.93,33.61,5.13,18.66,9,37.61,12.48,56.63q1.1,6,2.12,12c.54,3.09-.84,5.52-3.88,6.08a14.58,14.58,0,0,1-5.66-.15c-3-.66-4.45-3-5-5.82-1.15-5.72-2.21-11.45-3.38-17.17-1.07-5.24-2.22-10.47-3.36-15.7-.23-1-.64-2-.86-3a3.12,3.12,0,0,0-2.78-2.58c-3.23-.56-6.44-1.21-9.68-1.63-5.07-.65-10.16-1.18-15.25-1.66-1.83-.18-3.68-.06-5.51-.11a3.5,3.5,0,0,0-3.9,2.81c-.94,3.63-2.1,7.23-2.74,10.91-1.72,9.84-3.21,19.72-4.78,29.58-.42,2.68-1.42,3.86-4.07,4.22a18.53,18.53,0,0,1-5,0c-2.63-.35-3.89-1.91-4-4.55C264.63,125.35,264.67,124.47,264.67,123.55Zm48.15-50.43c6.07-.15,6.43,0,6-4.8a4.2,4.2,0,0,0-.17-.7c-1.1-4.42-2.08-8.87-3.34-13.24-1.6-5.52-3.37-11-5.2-16.45a16.73,16.73,0,0,0-2.28-4.19c-1-1.42-2.07-1.48-3.13-.13a27.2,27.2,0,0,0-3.34,5.24q-3.63,7.83-6.91,15.81c-1.36,3.32-2.54,6.73-3.57,10.17-1.35,4.5-1,5.23,3.62,5.94C301.19,71.81,308,72.51,312.82,73.12Z"/><path d="M312,186.85c.19,10.37.37,20.41.55,30.71,1.14.07,2,.15,2.82.15,10.71.06,21.42.08,32.13.2a14,14,0,0,1,4.67.82,5.63,5.63,0,0,1,2.54,9,8.7,8.7,0,0,1-7.34,3.84q-14.86-.27-29.72-.48c-1.43,0-2.85.14-4.52.23-.22,15.33,1.25,30.46.12,45.87,1.49,0,2.83,0,4.16,0,12-.15,24-.34,36-.42a12.8,12.8,0,0,1,4.64.93c2.18.86,3,2.8,2.55,5.1-.76,3.86-5.14,7.65-9.08,7.71q-22.53.34-45.07.61a15.17,15.17,0,0,1-2.86-.18,4.78,4.78,0,0,1-4.34-4.68,10.31,10.31,0,0,1,0-2.15c1-11.1.6-22.22.49-33.32-.06-6.48-.32-12.95-.5-19.42a3.25,3.25,0,0,0-.79-2.65c-2.51-2.35-2.25-5.19-.91-7.93a9.47,9.47,0,0,0,.94-4.57c-.23-11.11-.44-22.22-.57-33.33-.09-7,4.82-10.9,11.34-10.7q17.13.5,34.27.91c4.71.11,9.44,0,14.14.16a14.4,14.4,0,0,1,5.29,1.27,5.35,5.35,0,0,1,1.94,8.45,9.4,9.4,0,0,1-3.76,2.83,29.56,29.56,0,0,1-7.85,2,194.86,194.86,0,0,1-32.32-.21C318.11,187.35,315.33,187.13,312,186.85Z"/><path d="M192.21,231.36c-.15,15.41,1.24,30.42.15,45.75.85,0,1.69.13,2.52.12,11.51-.15,23-.32,34.52-.44a27.08,27.08,0,0,1,6.18.39c3.95.9,5.3,3.92,3.39,7.47s-4.92,5.9-9.38,5.93c-14.54.13-29.09.38-43.63.56a17.11,17.11,0,0,1-3.58-.23,4.66,4.66,0,0,1-4-4.42,11.24,11.24,0,0,1-.06-2.39c1-11.18.58-22.37.48-33.56-.06-6.4-.32-12.79-.5-19.18a3.23,3.23,0,0,0-.8-2.64c-2.43-2.27-2.28-5.07-1-7.71a10.21,10.21,0,0,0,1-5c-.22-11-.45-22.06-.55-33.09-.07-7.07,4.81-10.8,11.14-10.67q24,.51,47.94,1a12.92,12.92,0,0,1,6,1.32,5.47,5.47,0,0,1,1.86,8.52,9.48,9.48,0,0,1-3.78,2.81,29.93,29.93,0,0,1-7.85,2,197.19,197.19,0,0,1-32.33-.22c-2.78-.25-5.56-.47-8.7-.73,0,10.26-.1,20.37.68,30.7.84.05,1.61.14,2.37.14,10.71.06,21.42.08,32.13.2a14.21,14.21,0,0,1,4.68.75c4.17,1.5,5.36,5.85,2.56,9.32a8.73,8.73,0,0,1-7.21,3.63q-14.87-.3-29.73-.49C195.29,231.1,193.87,231.27,192.21,231.36Z"/><path d="M472.12,26.92c0,10.37.11,20.48.74,30.88h4.24c10.23,0,20.47,0,30.7.11a13.06,13.06,0,0,1,4.42.82c3.94,1.52,5.12,5.58,2.58,9a8.84,8.84,0,0,1-7.55,3.92q-13.67-.27-27.34-.47c-2.2,0-4.41.08-6.81.13.07,15.47,1.2,30.6.27,45.9,3.67,0,7.09,0,10.51,0,9.91-.12,19.82-.29,29.73-.37a11.34,11.34,0,0,1,3.75.57c2.89,1,3.94,3.14,3.09,6.08-1,3.36-5.19,7.06-8.86,7.06-5.75,0-11.51.16-17.26.25-8.95.14-17.91.31-26.86.41a22.81,22.81,0,0,1-4.51-.42,4.17,4.17,0,0,1-3.48-3.52,9.88,9.88,0,0,1-.32-2.84c1.09-11.34.77-22.69.51-34-.14-6.31-.36-12.63-.51-18.94A4.43,4.43,0,0,0,458,68.22c-2-2.24-1.75-4.94-.44-7.38a9.19,9.19,0,0,0,1-4.8q-.37-16.44-.64-32.86a12.07,12.07,0,0,1,.41-3.55c1.49-4.93,5.16-7.54,10.46-7.4,9.11.25,18.22.64,27.33.84,7.19.16,14.39,0,21.58.22a13.4,13.4,0,0,1,5.06,1.16c3.85,1.73,4.66,6,1.72,9.11a9.69,9.69,0,0,1-4,2.55A37.43,37.43,0,0,1,511.62,28a215,215,0,0,1-35-.76C475.24,27.06,473.81,27,472.12,26.92Z"/><path d="M408.69,100.67q2.63-10.59,5.26-21.16c3.59-14.25,6.86-28.6,12-42.39C427.92,32,430.32,27,432.7,22a23.75,23.75,0,0,1,5.58-7.44,8.24,8.24,0,0,1,6.51-2.49c3.22.32,5,2.69,4.31,5.85A12.34,12.34,0,0,1,448,21.1c-3.15,5.88-5,12.26-7.17,18.53-6.94,19.94-11.76,40.5-17.8,60.7-2.5,8.34-5.19,16.63-7.78,24.94a9.32,9.32,0,0,1-5.1,6c-5.11,2.28-7.5.54-8.92-3.45-1.62-4.51-3.17-9-4.79-13.56-6.1-17-13.61-33.45-21-49.93-5-11.08-10-22.13-15-33.19a16,16,0,0,1-.94-2.46,9.09,9.09,0,0,1,7.07-11.18c3.47-.65,6.31.92,7.86,4.42,3.18,7.25,6.36,14.49,9.47,21.77q11.76,27.56,23.45,55.15c.27.64.61,1.25.91,1.88Z"/><path d="M573.78,188.76h-3l-25.19-.07c-.48,0-1-.08-1.44-.09-5.06-.11-6.93-5.57-5-9.11,1.71-3.2,4.22-5.09,8-5.14q34.53-.48,69.07-1c2,0,4,0,5.74,1.21a4.66,4.66,0,0,1,2.3,4.21,18.8,18.8,0,0,1-.27,3.1c-.74,3.67-3,5.51-6.69,5.62-8.95.26-17.9.49-26.85.74-.63,0-1.26.11-2.12.2-.06.89-.12,1.75-.17,2.6-1.12,16.7-.66,33.42-.5,50.13.13,14.4.34,28.79.47,43.19a19.62,19.62,0,0,1-.47,4,3.75,3.75,0,0,1-3.26,3.1,27.22,27.22,0,0,1-4.76.46c-3.07,0-4.88-1.66-5.39-4.72a29.1,29.1,0,0,1-.42-4.06c-.28-9.83-.61-19.66-.77-29.5-.14-9.2-.21-18.4-.08-27.59.15-11.84.54-23.67.82-35.5C573.8,190.07,573.78,189.59,573.78,188.76Z"/><path d="M35.38,188.74H33.83l-25.9-.05c-.72,0-1.44-.08-2.16-.09-4.53-.06-6.94-4.89-5.21-8.68,1.54-3.38,4.08-5.5,8-5.56L46,173.81q15.59-.23,31.18-.46c2.06,0,4.14-.26,6.05,1s2.85,2.54,2.7,4.7a22.85,22.85,0,0,1-.27,2.87c-.76,3.66-3,5.49-6.71,5.6-9,.26-17.9.49-26.85.74-.63,0-1.26.12-2.1.2-.06.91-.13,1.77-.18,2.62-1.09,16.39-.68,32.78-.5,49.18.15,14.47.34,29,.46,43.43a24.34,24.34,0,0,1-.47,4.74A3.69,3.69,0,0,1,46,291.47a28.2,28.2,0,0,1-4.76.45,5,5,0,0,1-5.33-4.52,28.63,28.63,0,0,1-.46-4.53c-.29-10.47-.65-20.94-.77-31.42q-.2-17,0-34.07c.09-8.72.46-17.43.71-26.14C35.4,190.52,35.38,189.81,35.38,188.74Z"/></g></g></svg>