<svg xmlns="http://www.w3.org/2000/svg" viewBox="0 0 2157.6 849.15"><defs><style>.cls-1{fill:#37cdc2;}.cls-2{isolation:isolate;font-size:544.37px;font-family:PatrickHand-Regular, Patrick Hand;}</style></defs><g id="레이어_2" data-name="레이어 2"><g id="레이어_1-2" data-name="레이어 1"><g id="레이어_2-2" data-name="레이어 2"><g id="레이어_1-2-2" data-name="레이어 1-2"><g id="레이어_2-2-2" data-name="레이어 2-2"><g id="레이어_1-2-2-2" data-name="레이어 1-2-2"><g id="레이어_2-2-2-2" data-name="레이어 2-2-2"><g id="highlight"><path class="cls-1" d="M241.44,849.15l647-85.92c214.33-28.23,428.56-63.18,643.3-81.69a2323.3,2323.3,0,0,1,360.36-2.43c33.87,3.27,68-5.55,98.73-25.53,31.77-12.33,60.75-35.34,84-66.72,25.29-28.65,44.67-65.37,56.28-106.53a324,324,0,0,0,26.49-128.76c0-87-18.15-178.35-65.79-240.81C2043.63,47.61,1985.22,10.59,1916,5.76a2316.08,2316.08,0,0,0-321.78-.33c-105.48,7.32-210.78,22.17-315.84,36l-647,85.92-366,48.48c-33.75-3.27-67.8,5.46-98.58,25.17-31.8,12.48-60.72,35.46-84.06,66.87C57.45,296.49,38,333.21,26.43,374.4A324.72,324.72,0,0,0,0,503.4C-.18,590.52,18.18,681.66,65.82,744l49.44,54.6c37.74,31.59,81.36,49,126.36,50.55Z"/></g><g id="title"><text class="cls-2" transform="translate(313.11 669.15) rotate(-5.14)">MARKET</text></g></g></g></g></g></g></g></g></svg>