<?xml version="1.0" encoding="utf-8"?>
<!-- Generator: Adobe Illustrator 24.3.0, SVG Export Plug-In . SVG Version: 6.00 Build 0)  -->
<svg version="1.1" id="market-hero" xmlns="http://www.w3.org/2000/svg" xmlns:xlink="http://www.w3.org/1999/xlink" x="0px"
	 y="0px" viewBox="0 0 1920 540.5" style="enable-background:new 0 0 1920 540.5;" xml:space="preserve">
<style type="text/css">
	.st0{fill:#FCFCFC;}
	.st1{fill:none;}
	.st2{fill:#37CDC2;}
</style>
<path id="waveline" class="st0" d="M580.9,385.5c347.9-22.8,373.2-12.7,619.1-35.4c111.1-19.5,385.4-53.3,719.9,10.2V540H0V370
	C276.7,429.2,409.2,396.8,580.9,385.5z"/>
<rect id="frame" x="5" y="0.3" class="st1" width="1920" height="540.5"/>
<path id="highlight" class="st2" d="M742.7,474.8l165.9-18.2c55-6,110-13.7,164.9-17.1c30.7-1.8,61.4-1.1,92,2.2
	c8.9,1.1,18-1.1,25.4-6.1c8.2-3.1,15.8-9.1,22-17.4c7.1-8.3,12.3-18,15.3-28.4c4.8-10.9,7.5-22.7,7.8-34.7
	c0.7-23.6-3.2-48.5-14.8-65.8c-11.8-17.5-26.4-28-44-29.8c-27.3-2.9-54.7-3.7-82.1-2.6c-27,1.1-54,4.4-81,7.3l-166,18.2l-93.9,10.3
	c-8.6-1.2-17.4,0.9-25.4,6c-8.2,3.1-15.8,9.1-22,17.4c-7.1,8.3-12.3,18-15.3,28.4c-4.8,11-7.5,22.8-7.8,34.8
	c-0.8,23.6,3.2,48.5,14.8,65.7l12.2,15.2C720.2,468.9,731.2,474,742.7,474.8L742.7,474.8z"/>
<path d="M818.3,352.4c-1.1,1.8-2,3.4-3.1,4.9c-6.5,9-14.8,15.1-26.1,16.4c-7.1,0.8-13.4-1.1-18.6-6.2c-0.3-0.3-0.6-0.5-0.9-0.8
	c0,0-0.1,0-0.1,0c0,1.2-0.1,2.4,0,3.6c0.8,13.9,1.6,27.7,2.4,41.6c0.1,1,0.1,1.9,0.2,2.9c0.1,2.6-0.8,4.8-3.3,6
	c-1.2,0.6-2.5,1.1-3.8,1.3c-3,0.5-4.7-0.9-5-4c-0.3-4.1-0.5-8.3-0.7-12.4c-0.6-10.5-1.2-20.9-1.8-31.4c-0.6-9.9-1.2-19.8-1.8-29.7
	c-0.2-4.1-0.5-8.3-0.8-12.4c-0.2-2.3,0.5-4.3,1.8-6.1c1.5-2,3.6-2.4,5.9-1.8c2.3,0.6,3.9,1.8,4.4,4.3c0.7,4.6,1.4,9.2,2.4,13.7
	c0.9,4,2.4,7.8,4.8,11.2c5.2,7.5,9.5,7.9,15.7,6.7c9.5-1.9,16-7.4,20-16.1c2.8-6,4.8-12.2,6.6-18.5c0.5-1.8,1.4-3.6,2.3-5.2
	c1.1-1.8,3-2.5,5-2.6c1.6-0.1,2.9,0.6,3.6,2c0.7,1.3,1.3,2.8,1.4,4.3c1.5,19.2,2.9,38.4,4.2,57.7c0.6,8.9,1,17.8,1.4,26.7
	c0.1,1.8-0.2,3.7-0.5,5.6c-0.4,2-1.7,3.3-3.7,3.8c-0.8,0.2-1.7,0.4-2.6,0.5c-3.1,0.3-4.6-1-4.9-4.1c-0.2-2.4-0.3-4.8-0.5-7.2
	c-1-14.7-1.9-29.3-2.9-44c-0.2-3.4-0.6-6.7-0.9-10.1C818.4,352.9,818.4,352.7,818.3,352.4z"/>
<path d="M941.2,368c4.9,3.5,9.9,6.8,14.6,10.5c6.3,4.8,12.2,10,17.2,16.2c2,2.5,3.9,5.1,4.6,8.3c0.6,2.5-0.3,4.4-2.3,5.9
	c-2.8,2.1-7.5,1.9-9.5-2c-2.6-5.1-6.5-9.1-10.7-12.9c-7.2-6.5-15.3-11.9-23.8-16.8c-0.2-0.1-0.4-0.2-0.8-0.4
	c0.1,1.7,0.2,3.3,0.4,4.9c0.7,7.8,1.4,15.6,2.2,23.4c0.4,4-3.9,8.1-7.6,7.9c-1.8-0.1-3.6-1.8-3.7-3.8c-0.7-8.4-1.3-16.8-1.9-25.1
	c-0.7-10-1.4-20-2.1-30c-0.5-7.7-1.1-15.3-1.5-23c-0.3-6.3,2.2-11.3,7.8-14.4c7.6-4.3,15.9-6.2,24.6-5.5c8,0.7,14.9,4.1,20.8,9.6
	c6.3,5.9,7.3,13.4,3,20.9c-3.7,6.4-8.6,11.7-14.4,16.3c-5,4-10.5,7.2-16.3,9.8C941.5,367.9,941.3,368,941.2,368z M929.8,360.3
	c1.1-0.2,2.1-0.3,3-0.5c6.3-1.4,11.8-4.4,17.1-7.9c4.3-2.9,8.4-6.1,11.5-10.3c3.2-4.4,2.6-10-1.6-13.5c-1.1-0.9-2.3-1.7-3.5-2.2
	c-9-3.8-18-3-27.1-0.1c-1.1,0.3-1.4,0.9-1.3,2c0.5,9.3,1,18.5,1.5,27.8C929.6,357,929.7,358.6,929.8,360.3z"/>
<path d="M1016.7,359.2c-2.5,2.6-4.8,5-7.1,7.3c-1.4,1.4-2.8,2.8-4.3,4.1c-0.6,0.5-0.6,1-0.6,1.7c0.9,8.4,1.7,16.9,1.6,25.4
	c0,2.3-0.4,4.6-1.6,6.7c-1.4,2.5-4.2,3.8-7,3.4c-1.6-0.2-2.7-1.2-2.9-2.7c-0.3-1.6-0.4-3.2-0.5-4.7c-0.8-15.9-2.4-31.8-4.3-47.6
	c-1.2-10.4-2.6-20.7-3.9-31.1c-0.2-1.9-0.7-3.8-0.7-5.7c0-3.7,3.4-7.3,6.7-7.5c2.1-0.1,3.7,0.7,4.5,2.5c0.8,1.9,1.2,3.9,1.6,6
	c2,10.6,3.2,21.3,4.2,32c0.2,1.9,0.3,3.8,0.5,5.7c0,0.3,0.1,0.5,0.2,1c1.7-1.8,3.3-3.5,4.9-5.1c11.7-12.1,21.4-25.6,28.9-40.7
	c1.9-3.7,4.8-5.2,8.4-4.7c3.3,0.5,4.9,2.6,4.3,5.8c-0.7,3.7-2.4,7.1-4.3,10.3c-5.7,9.7-12.1,19-18.9,28.1c-0.2,0.3-0.4,0.6-0.7,1
	c1.2,1.2,2.4,2.3,3.6,3.4c7.2,6.9,13.4,14.7,18.8,23c2.5,3.9,5.2,7.6,7.8,11.5c2.1,3.1,3.6,6.3,3.2,10.2c-0.2,2.1-1,4-2.9,5.3
	c-1.7,1.2-3.5,1.2-5.1-0.2c-1.6-1.5-3.1-3.2-4.4-5c-5.9-8.1-11.5-16.5-17.5-24.5c-3.6-4.8-7.8-9.1-11.8-13.6
	C1017.2,359.9,1017,359.6,1016.7,359.2z"/>
<path d="M845.1,409.3c0.7-6,1.3-12,2.2-17.9c2.2-14.6,5.2-29,8.6-43.3c1.9-7.7,3.9-15.4,7.8-22.4c1.1-2,2.5-3.9,4-5.6
	c0.9-1.1,2.1-2,3.3-2.7c4.1-2.5,8.5-1.8,11.2,2.2c2.3,3.4,4.3,7.1,6.1,10.8c4.9,9.9,8.3,20.4,11.5,30.9c4.8,15.4,8.8,31.1,12.5,46.8
	c0.6,2.6-0.5,4.5-3.1,5.3c-4.5,1.4-8.1-0.5-9.3-5c-2-7.7-4-15.4-6-23.1c-0.5-2-1.3-3.9-1.9-5.9c-0.4-1.3-1.2-1.9-2.5-2.1
	c-2.4-0.3-4.7-0.7-7.1-0.8c-5.6-0.3-11.3-0.5-17-0.6c-3.8,0-4.5,0.5-5.1,4.2c-1,6.3-1.9,12.6-2.6,18.9c-0.6,4.7-0.9,9.5-1.3,14.3
	c-0.1,1.3-0.7,2.2-1.9,2.7c-2,0.9-4.1,1.1-6.2,0.6c-1.8-0.4-2.8-1.7-2.9-3.6c-0.1-1.2,0-2.4,0-3.6
	C845.3,409.3,845.2,409.3,845.1,409.3z M878.8,366.1c0,0,0-0.1,0-0.1c2,0,4,0.1,6,0c3.6-0.2,4.1-0.7,3-4.3
	c-1.4-4.7-2.8-9.3-4.5-13.9c-1.4-3.9-3-7.7-4.6-11.5c-0.5-1.1-1.3-2.1-2.1-3c-0.6-0.7-1.4-0.7-1.9,0c-0.6,0.7-1.2,1.5-1.6,2.4
	c-1.8,4.4-3.7,8.8-5.3,13.3c-1.4,4-2.5,8.1-3.6,12.3c-0.7,2.8-0.3,3.5,2.6,3.8C870.7,365.5,874.8,365.8,878.8,366.1z"/>
<path d="M1076.5,315.9c0.1,2,0.2,3.9,0.4,5.8c0.5,6.2,1.1,12.5,1.6,18.7c0.1,0.9,0.4,1.2,1.3,1.1c9.3-0.5,18.7-1.1,28.1-1.5
	c1.2-0.1,2.6,0.1,3.8,0.4c3.4,1.1,4.6,4.5,2.6,7.4c-1.4,2.1-3.3,3.4-6,3.5c-8.3,0.3-16.6,0.7-25,1.1c-1.2,0.1-2.4,0.3-3.7,0.4
	c0.8,12.8,2.6,25.4,2.5,38.3c2.1-0.1,4.1-0.3,6.2-0.4c9.3-0.7,18.6-1.4,27.9-2c0.9-0.1,1.9,0.1,2.8,0.3c2.3,0.6,3.3,2.3,2.9,4.6
	c-0.5,3.3-4,6.5-7.4,6.7c-12.1,0.9-24.2,1.8-36.2,2.7c-0.8,0.1-1.7,0.1-2.5,0.1c-3.6,0-5.3-1.8-5.2-5.4c0.4-9.1-0.5-18.1-1.2-27.2
	c-0.4-5.9-1-11.8-1.6-17.7c0-0.4-0.2-1-0.5-1.3c-2.1-2-2.6-4.4-1.2-7.1c0.5-0.9,0.6-1.8,0.5-2.8c-0.8-9.6-1.5-19.2-2.3-28.8
	c-0.4-4.9,3.5-9,8.5-9.2c10.5-0.3,21-0.7,31.5-1c3.4-0.1,6.8-0.5,10.3-0.5c1.6,0,3.4,0.5,4.7,1.3c2.8,1.7,2.6,5.9-0.3,8.1
	c-2.5,1.9-5.4,2.7-8.4,3.1c-5,0.5-10,1-15,1.2c-6,0.2-11.9,0-17.9,0C1077.3,315.9,1077,315.9,1076.5,315.9z"/>
<path d="M1153.6,312.8c-1.4,0.1-2.9,0.2-4.4,0.3c-6.5,0.4-13.1,0.7-19.6,1.1c-2.2,0.1-4.1-0.3-5.2-2.3c-1.2-2.1-1-4.2,0.3-6.2
	c1.4-2.2,3.4-3.4,6.1-3.6c11.3-0.8,22.7-1.7,34-2.5c8.5-0.6,16.9-1.3,25.4-1.9c2.8-0.2,5.2,2.1,5.2,4.9c0,0.6,0,1.1-0.1,1.7
	c-0.5,3.5-2.2,5.1-5.7,5.4c-3.6,0.3-7.2,0.5-10.9,0.8c-4.3,0.4-8.6,0.8-13,1.2c0,2.8-0.1,5.4,0,8.1c0.7,13.5,1.5,27,2.4,40.5
	c0.7,10.8,1.5,21.7,2.3,32.5c0,0.7,0,1.4-0.1,2.1c-0.2,1.7-1.1,2.9-2.9,3.2c-1.1,0.2-2.2,0.4-3.3,0.5c-3,0.3-4.7-0.9-5.3-3.9
	c-0.4-2.3-0.7-4.6-0.9-7c-1.2-16.9-2.5-33.8-3.5-50.8c-0.5-7.9-0.5-15.8-0.7-23.8C1153.8,313.1,1153.7,313,1153.6,312.8z"/>
</svg>
