<?xml version="1.0" encoding="utf-8"?>
<!-- Generator: Adobe Illustrator 24.3.0, SVG Export Plug-In . SVG Version: 6.00 Build 0)  -->
<svg version="1.1" id="market-hero" xmlns="http://www.w3.org/2000/svg" xmlns:xlink="http://www.w3.org/1999/xlink" x="0px"
	 y="0px" viewBox="0 0 1920 540.5" style="enable-background:new 0 0 1920 540.5;" xml:space="preserve">
<style type="text/css">
	.st0{fill:#FCFCFC;}
	.st1{fill:none;}
	.st2{fill:#37CDC2;}
</style>
<path id="waveline" class="st0" d="M580.9,385.5c347.9-22.8,373.2-12.7,619.1-35.4c111.1-19.5,385.4-53.3,719.9,10.2V540H0V370
	C276.7,429.2,409.2,396.8,580.9,385.5z"/>
<rect id="frame" y="0" class="st1" width="1920" height="540.5"/>
<path id="highlight" class="st2" d="M742.7,474.8l165.9-18.2c55-6,110-13.7,164.9-17.1c30.7-1.8,61.4-1.1,92,2.2
	c8.9,1.1,18-1.1,25.4-6.1c8.2-3.1,15.8-9.1,22-17.4c7.1-8.3,12.3-18,15.3-28.4c4.8-10.9,7.5-22.7,7.8-34.7
	c0.7-23.6-3.2-48.5-14.8-65.8c-11.8-17.5-26.4-28-44-29.8c-27.3-2.9-54.7-3.7-82.1-2.6c-27,1.1-54,4.4-81,7.3l-166,18.2l-93.9,10.3
	c-8.6-1.2-17.4,0.9-25.4,6c-8.2,3.1-15.8,9.1-22,17.4c-7.1,8.3-12.3,18-15.3,28.4c-4.8,11-7.5,22.8-7.8,34.8
	c-0.8,23.6,3.2,48.5,14.8,65.7l12.2,15.2C720.2,468.9,731.2,474,742.7,474.8L742.7,474.8z"/>
<image style="overflow:visible;" width="1924" height="834" id="MARKET" xlink:href="5DC6DEA6.png"  transform="matrix(0.24 0 0 0.24 742.8 270.74)">
</image>
</svg>
