<svg xmlns="http://www.w3.org/2000/svg" viewBox="0 0 1920 540.5"><defs><style>.cls-1{fill:#fcfcfc;}.cls-2{fill:none;}.cls-3{fill:#37cdc2;}.cls-4{isolation:isolate;font-size:151.37px;font-family:PatrickHand-Regular, Patrick Hand;}</style></defs><g id="레이어_2" data-name="레이어 2"><g id="레이어_1-2" data-name="레이어 1"><g id="레이어_2-2" data-name="레이어 2"><g id="레이어_1-2-2" data-name="레이어 1-2"><g id="레이어_2-2-2" data-name="레이어 2-2"><g id="레이어_1-2-2-2" data-name="레이어 1-2-2"><g id="레이어_2-2-2-2" data-name="레이어 2-2-2"><g id="레이어_1-2-2-2-2" data-name="레이어 1-2-2-2"><path class="cls-1" d="M580.93,385.52c347.9-22.75,373.19-12.68,619.13-35.36,111.11-19.51,385.38-53.27,719.94,10.21V540H0V370C276.67,429.19,409.19,396.75,580.93,385.52Z"/></g></g></g></g><rect class="cls-2" width="1920" height="540.5"/><g id="레이어_2-3" data-name="레이어 2-3"><g id="레이어_1-2-3" data-name="레이어 1-2-3"><g id="레이어_2-2-3" data-name="레이어 2-2-3"><g id="highlight"><path class="cls-3" d="M742.67,474.81,908.6,456.62c55-6,110-13.74,164.92-17.07a560.27,560.27,0,0,1,92,2.18,37.38,37.38,0,0,0,25.42-6.14c8.22-3.09,15.81-9.1,22-17.44a75.62,75.62,0,0,0,15.26-28.43,92.39,92.39,0,0,0,7.84-34.69c.73-23.58-3.17-48.47-14.78-65.8-11.78-17.49-26.38-28-44-29.84a558.4,558.4,0,0,0-82.09-2.58c-27,1.15-54,4.35-81,7.27l-166,18.19-93.86,10.26c-8.59-1.16-17.36.94-25.38,6-8.23,3.13-15.8,9.13-22,17.44a75.37,75.37,0,0,0-15.27,28.42,92.77,92.77,0,0,0-7.83,34.76c-.79,23.61,3.17,48.45,14.8,65.72l12.17,15.19c9.37,8.85,20.36,13.92,31.84,14.69Z"/></g><g id="title"><text class="cls-4" transform="matrix(1, -0.06, 0.06, 1, 750.43, 423.67)">MARKET</text></g></g></g></g></g></g></g></g></svg>