<svg xmlns="http://www.w3.org/2000/svg" viewBox="0 0 1013.02 99.29"><defs><style>.cls-1{fill:#37cdc2;}</style></defs><g id="레이어_2" data-name="레이어 2"><g id="highlight"><path class="cls-1" d="M0,58.81v-16c1.6-4,.9-8.61,3.29-12.42C12.51,15.74,25.14,6.05,43.06,6c70.81-.25,141.63-1,212.42.14,73,1.16,145.91.52,218.86.52,21.79,0,43.63,0,65.4-1,12.82-.58,25.63-.17,38.42-.83,20.6-1.07,41.22-1.34,61.83-2.08,23.46-.85,46.91-1,70.37-1.27,57-.55,113.94-.53,170.91-.4q19,0,37.91,1.16A180.56,180.56,0,0,0,959.81,0h1a7.87,7.87,0,0,0,6,0h7c17.42,1.61,28.46,12,35.63,26.81,5.9,12.17,5.36,35.94-8,49.22-12.83,12.73-28.34,17.42-45.26,19.58a141.13,141.13,0,0,1-25.91,1.12c-14.6-.83-29.21-1.49-43.78-2.79-2.33-.21-4.66-.17-7-.17-38.82,0-77.65-.58-116.46.23-21,.43-42-.07-62.9,1-13,.65-26,.21-38.92.84-23.94,1.16-47.88,1.56-71.84,1.94-20.3.32-40.6.84-60.91.86-19.48,0-39,.92-58.44.54H364c-29.31,0-58.63.29-87.94-.06-75.78-.9-151.56-.14-227.33-.47C39.41,98.6,30,98.44,21.8,93,10.59,85.53,1.77,76.53.74,62.16A6,6,0,0,0,0,58.81Z"/></g></g></svg>